<svg width="436" height="139" viewBox="0 0 436 139" fill="none" xmlns="http://www.w3.org/2000/svg">
<path d="M367.261 3.17922C371.935 1.31913 375.315 11.3845 377.896 14.4006C382.075 21.1282 388.192 27.2387 390.425 34.7833C391.807 39.7986 392.893 45.9178 398.436 47.7344C400.852 48.6644 403.71 48.7514 406.291 49.099C413.26 49.8552 419.759 54.2708 426.58 56.0613C429.786 57.0957 434.799 57.7563 435.92 61.3026C436.433 63.1714 434.452 65.2662 431.324 67.2132C426.05 70.1771 420.767 73.9755 415.31 76.7309C412.617 78.1564 409.306 79.0604 407.386 81.5028C405.083 84.3712 407.916 90.2122 408.967 95.6882C409.81 100.547 410.262 105.493 411.652 110.178C413.364 117.123 416.561 123.216 419.472 129.561C420.271 131.569 421.001 134.428 419.203 135.602C405.535 137.331 398.315 114.28 387.601 107.605C378.504 98.6174 364.984 104.806 361.404 115.801C360.171 119.148 358.25 122.903 355.748 125.084C347.311 131.482 330.237 146.415 335.746 124.615C336.537 113.95 353.715 94.5495 342.35 86.9005C336.276 83.8149 330.185 81.7201 325.424 76.1312C321.201 71.5331 316.761 66.005 311.365 63.3452C308.507 61.5634 302.537 60.2335 302.98 56.1656C304.223 53.0104 308.854 52.7844 311.939 52.515C323.721 52.2368 336.259 51.0895 347.954 51.9587C357.547 53.2886 359.866 42.354 362.169 35.1049C365.497 25.2221 361.344 12.4623 366.957 3.43128L367.261 3.17922Z" fill="#100F0F"/>
<path d="M64.8257 3.64916C67.7712 1.26755 69.8479 5.55272 70.821 7.88217C73.0541 14.8792 77.0857 21.8328 78.4672 29.1341C78.6844 36.0355 76.4253 43.3021 79.8835 49.8037C80.8654 52.2983 82.7161 54.2192 85.4704 54.9146C95.089 56.8268 155.32 48.2217 124.214 68.5784C118.957 72.3246 112.458 71.4468 106.506 73.3851C83.5328 81.0688 97.7044 92.4031 103.126 107.293C104.482 110.865 104.96 113.42 106.167 116.871C107.193 119.974 108.87 122.912 110.095 125.928C111.172 128.614 111.216 131.282 109.791 132.03C108.887 132.569 107.462 132.299 105.994 131.422C100.511 127.719 96.5227 121.991 91.4571 117.61C86.9128 113.516 79.7532 114.629 75.0612 110.856C70.6994 107.501 65.6425 99.4089 59.5516 104.468C51.3493 111.126 51.2884 122.677 43.5988 129.709C41.0356 131.847 38.1074 136.463 34.7101 136.011C32.4944 133.699 34.2061 129.231 34.3538 126.276C36.1785 117.419 34.0584 108.883 35.9092 100.235C39.0632 88.2658 37.9771 83.6329 26.6903 76.8705C20.9209 73.8197 13.04 76.5055 6.94915 73.5154C2.12683 71.6814 -3.05173 67.9786 2.20504 65.6579C7.75722 64.0238 13.8655 64.1628 19.9303 63.0763C26.6729 62.3375 33.7717 61.0946 40.2883 58.8173C43.8073 57.696 47.978 57.357 50.5238 54.6538C53.5823 50.7598 51.4014 44.997 53.0088 40.2077C53.9212 36.3919 55.5808 32.8369 56.5192 29.0298C58.4568 20.6681 59.0563 10.9678 64.5216 3.92731L64.8257 3.64916Z" fill="#100F0F"/>
<path d="M219.105 0.771925C225.03 -4.43458 226.586 18.2776 228.723 21.6675C231.573 29.2035 232.121 38.0345 237.377 43.9798C242.174 48.4649 249.09 45.3966 254.929 45.8399C261.333 45.9442 266.311 49.0038 272.767 49.3428C282.42 49.6992 288.737 51.7331 282.386 58.8605C273.558 68.7781 247.839 65.988 252.313 83.2155C255.85 94.3065 266.285 101.373 271.012 111.882C274.383 126.406 254.338 114.098 249.116 110.204C242.712 106.154 237.325 100.382 232.26 94.9323C229.696 93.0288 226.699 94.7585 224.639 96.6707C219.904 101.234 214.508 106.545 209.825 111.499C202.865 118.601 199.633 128.51 192.534 135.594C189.675 139.331 182.646 141.278 182.916 134.524C184.436 127.666 189.337 121.678 191.796 115.054C194.341 109.205 192.16 102.694 194.237 96.6012C195.132 93.3417 197.322 89.9171 196.157 86.5272C194.619 82.1029 189.085 81.3033 185.461 79.0608C180.839 76.6183 178.137 71.9768 173.931 69.0215C168.11 65.0927 160.828 62.8154 154.711 60.2165C146.301 55.9748 154.26 52.4111 159.994 53.7236C166.746 54.7058 174.148 54.5667 180.891 54.4102C189.423 53.4367 199.772 57.4872 205.472 49.6992C209.625 41.6156 212.258 32.5325 214.943 23.9274C215.733 19.3815 215.516 14.6878 216.342 10.5157C217.132 6.69118 216.993 4.40519 218.87 1.07615L219.105 0.789313V0.771925Z" fill="#100F0F"/>
</svg>
