<svg width="200" height="200" viewBox="0 0 200 200" fill="none" xmlns="http://www.w3.org/2000/svg">
<rect width="200" height="200" fill="#FF6EC3"/>
<path d="M81.0931 45.0852L69.5242 47.249C67.2009 47.6836 65.4993 49.6856 65.4448 52.0485L64.5876 89.2081C64.5707 89.9389 64.7143 90.6645 65.0082 91.3337L67.9085 97.9387C68.5094 99.307 68.4667 100.872 67.7921 102.206L63.7534 110.19C63.2644 111.156 63.1025 112.255 63.2922 113.322L64.3891 119.491C64.5033 120.132 64.4908 120.791 64.3523 121.428L63.2747 126.386C63.0945 127.215 63.1283 128.076 63.3728 128.888L64.3161 132.023C64.4789 132.564 64.732 133.073 65.0649 133.53L66.8057 135.915C67.4301 136.771 67.7665 137.803 67.7665 138.862V145.066C67.7665 146.567 68.9835 147.784 70.4847 147.784C72.1125 147.784 73.3754 146.363 73.1841 144.747L72.9559 142.818C72.5843 139.678 75.5175 137.166 78.5629 138.015L85.892 140.059C86.7555 140.299 87.5384 140.768 88.1587 141.415L96.2994 149.909C96.6172 150.24 96.9791 150.526 97.375 150.759L103.194 154.18C104.1 154.713 105.152 154.947 106.199 154.848L115.132 154.002L135.183 150.707C136.231 150.535 137 149.629 137 148.567C137 147.639 136.409 146.813 135.531 146.514L119.949 141.203C118.509 140.712 117.371 139.593 116.856 138.161L114.494 131.587C114.271 130.965 113.926 130.393 113.48 129.905L104.336 119.899C103.493 118.977 103.026 117.774 103.026 116.526V106.688L104.588 92.9129L108.097 54.2083C108.225 52.7947 107.746 51.3933 106.78 50.3536L105.549 49.0284C104.921 48.3524 104.118 47.8634 103.229 47.6155L94.5086 45.1837C94.0713 45.0618 93.6195 45 93.1655 45H82.0124C81.704 45 81.3963 45.0285 81.0931 45.0852Z" fill="black"/>
</svg>
